# Blender 4.5.6 LTS
# www.blender.org
mtllib Baradiel prototype.mtl
o Body
v -0.662120 -0.662120 1.267305
v -0.662120 5.281854 1.267305
v -0.662120 -0.662120 -1.267305
v -0.662120 5.281854 -1.267305
v 0.662120 -0.662120 1.267305
v 0.662120 5.281854 1.267305
v 0.662120 -0.662120 -1.267305
v 0.662120 5.281854 -1.267305
v -0.662120 6.516485 1.267305
v -0.662120 6.516485 -1.267305
v 0.662120 6.516485 -1.267305
v 0.662120 6.516485 1.267305
v -0.662120 5.281854 -2.626860
v 0.662120 5.281854 -2.626860
v -0.662120 6.516485 -2.626860
v 0.662120 6.516485 -2.626860
v -0.662120 2.795510 -1.303713
v 0.662120 2.795510 -1.303713
v -0.662120 2.795510 -2.663268
v 0.662120 2.795510 -2.663268
v -0.662120 -0.662120 -1.267305
v -0.662120 5.281854 -1.267305
v -0.662120 -0.662120 1.267305
v -0.662120 5.281854 1.267305
v 0.662120 -0.662120 -1.267305
v 0.662120 5.281854 -1.267305
v 0.662120 -0.662120 1.267305
v 0.662120 5.281854 1.267305
v -0.662120 6.516485 -1.267305
v -0.662120 6.516485 1.267305
v 0.662120 6.516485 1.267305
v 0.662120 6.516485 -1.267305
v -0.662120 5.281854 2.626860
v 0.662120 5.281854 2.626860
v -0.662120 6.516485 2.626860
v 0.662120 6.516485 2.626860
v -0.662120 2.795510 1.303713
v 0.662120 2.795510 1.303713
v -0.662120 2.795510 2.663268
v 0.662120 2.795510 2.663268
vn -1.0000 -0.0000 -0.0000
vn -0.0000 -0.0000 -1.0000
vn 1.0000 -0.0000 -0.0000
vn -0.0000 -0.0000 1.0000
vn -0.0000 -1.0000 -0.0000
vn -0.0000 1.0000 -0.0000
vn -0.0000 -0.0146 0.9999
vn -0.0000 0.0146 -0.9999
vn -0.0000 -0.0146 -0.9999
vn -0.0000 0.0146 0.9999
vt 0.300155 0.635657
vt 0.300155 -0.003291
vt 0.442504 -0.003291
vt 0.442504 0.635657
vt 0.583848 0.638946
vt 0.583848 0.000000
vt 0.726198 0.000000
vt 0.726198 0.638946
vt 0.297215 0.780350
vt 0.297215 0.124031
vt 0.443434 0.124031
vt 0.443434 0.780350
vt 0.441499 0.771662
vt 0.441499 0.132716
vt 0.583848 0.132716
vt 0.583848 0.771662
vt 0.868547 0.667264
vt 0.868547 0.809614
vt 0.726198 0.809614
vt 0.726198 0.667264
vt 0.000000 0.000000
vt 0.142349 0.000000
vt 0.726198 0.781295
vt 0.583848 0.781295
vt 0.583848 0.638946
vt 0.726198 0.638946
vt 0.441499 0.000000
vt 0.726198 0.399990
vt 0.868547 0.399990
vt 0.299150 0.000000
vt 0.868547 0.132716
vt 0.726198 0.132716
vt 0.868547 0.000000
vt 0.222794 0.132717
vt 0.222794 0.000000
vt 0.218705 0.000000
vt 0.218705 0.132717
vt 0.726198 0.857651
vt 0.583848 0.857651
vt 0.868547 0.142349
vt 0.868547 -0.000000
vt 0.944903 0.000000
vt 0.944903 0.142349
vt 0.297105 0.399986
vt 0.220750 0.399986
vt 0.144394 0.399986
s 0
usemtl Material.001
f 1/1/1 2/2/1 4/3/1 3/4/1
f 3/5/2 4/6/2 8/7/2 7/8/2
f 7/9/3 8/10/3 6/11/3 5/12/3
f 5/13/4 6/14/4 2/15/4 1/16/4
f 3/17/5 7/18/5 5/19/5 1/20/5
f 4/3/1 2/2/1 9/21/1 10/22/1
f 11/23/6 10/24/6 9/25/6 12/26/6
f 2/15/4 6/14/4 12/27/4 9/6/4
f 8/28/7 4/29/7 17/17/7 18/20/7
f 6/11/3 8/10/3 11/30/3 12/27/3
f 14/31/2 13/32/2 15/7/2 16/33/2
f 11/30/3 8/10/3 14/34/3 16/35/3
f 4/3/1 10/22/1 15/36/1 13/37/1
f 10/24/6 11/23/6 16/38/6 15/39/6
f 18/40/5 17/41/5 19/42/5 20/43/5
f 14/34/3 8/10/3 18/44/3 20/45/3
f 4/3/1 13/37/1 19/45/1 17/46/1
f 13/32/8 14/31/8 20/29/8 19/28/8
f 21/1/1 23/4/1 24/3/1 22/2/1
f 23/5/4 27/8/4 28/7/4 24/6/4
f 27/9/3 25/12/3 26/11/3 28/10/3
f 25/13/2 21/16/2 22/15/2 26/14/2
f 23/17/5 21/20/5 25/19/5 27/18/5
f 24/3/1 30/22/1 29/21/1 22/2/1
f 31/23/6 32/26/6 29/25/6 30/24/6
f 22/15/2 29/6/2 32/27/2 26/14/2
f 28/28/9 38/20/9 37/17/9 24/29/9
f 26/11/3 32/27/3 31/30/3 28/10/3
f 34/31/4 36/33/4 35/7/4 33/32/4
f 31/30/3 36/35/3 34/34/3 28/10/3
f 24/3/1 33/37/1 35/36/1 30/22/1
f 30/24/6 35/39/6 36/38/6 31/23/6
f 38/40/5 40/43/5 39/42/5 37/41/5
f 34/34/3 40/45/3 38/44/3 28/10/3
f 24/3/1 37/46/1 39/45/1 33/37/1
f 33/32/10 39/28/10 40/29/10 34/31/10
o Head
v -1.169100 6.483312 1.169100
v -1.169100 8.821511 1.169100
v -1.169100 6.483312 -1.169100
v -1.169100 8.821511 -1.169100
v 1.169100 6.483312 1.169100
v 1.169100 8.821511 1.169100
v 1.169100 6.483312 -1.169100
v 1.169100 8.821511 -1.169100
vn -1.0000 -0.0000 -0.0000
vn -0.0000 -0.0000 -1.0000
vn 1.0000 -0.0000 -0.0000
vn -0.0000 -0.0000 1.0000
vn -0.0000 -1.0000 -0.0000
vn -0.0000 1.0000 -0.0000
vt 0.261197 0.736356
vt 0.260630 0.878704
vt 0.118282 0.878137
vt 0.118849 0.735789
vt 0.118584 0.736155
vt 0.119070 0.878504
vt -0.023278 0.878990
vt -0.023764 0.736641
vt 0.368235 0.879301
vt 0.369634 0.994873
vt 0.254061 0.996272
vt 0.252663 0.880699
vt 0.403238 0.735454
vt 0.403576 0.877803
vt 0.261227 0.878141
vt 0.260889 0.735792
vt 0.868547 0.809614
vt 0.868547 0.951963
vt 0.726198 0.951963
vt 0.726198 0.809614
vt 0.131331 0.996993
vt 0.131486 0.879881
vt 0.248598 0.880036
vt 0.248443 0.997148
s 0
usemtl Material.001
f 41/47/11 42/48/11 44/49/11 43/50/11
f 43/51/12 44/52/12 48/53/12 47/54/12
f 47/55/13 48/56/13 46/57/13 45/58/13
f 45/59/14 46/60/14 42/61/14 41/62/14
f 43/63/15 47/64/15 45/65/15 41/66/15
f 48/67/16 44/68/16 42/69/16 46/70/16
